<svg width="171" height="68" viewBox="0 0 171 68" fill="none" xmlns="http://www.w3.org/2000/svg">
<g filter="url(#filter0_d_6_15)">
<path id="m1" d="M151.5 36.5H166.5V44.5H151.5V36.5Z" fill="#9D9494" fill-opacity="0.09" stroke="black"/>
<path id="m2" d="M151.5 12.5H166.5V20.5H151.5V12.5Z" fill="#9D9494" fill-opacity="0.09" stroke="black"/>
<rect x="51.5" y="0.5" width="99" height="59" rx="12.5" fill="#FAFF00" fill-opacity="0.24" stroke="black"/>
<path d="M20 23.5H50C51.933 23.5 53.5 25.067 53.5 27V32C53.5 33.933 51.933 35.5 50 35.5H20C18.067 35.5 16.5 33.933 16.5 32V27C16.5 25.067 18.067 23.5 20 23.5Z" fill="#D9D9D9" stroke="black"/>
<rect x="68.5" y="17.5" width="63" height="22" stroke="black"/>
<path id="rotor" d="M27.5 28C27.5 34.6274 18 28 18 40C11.3726 40 12.5 28 4 28C18 28 11.3726 16 18 16C18 28 27.5 21.3726 27.5 28Z" fill="black"/>
</g>
<defs>
<filter id="filter0_d_6_15" x="0" y="0" width="171" height="68" filterUnits="userSpaceOnUse" color-interpolation-filters="sRGB">
<feFlood flood-opacity="0" result="BackgroundImageFix"/>
<feColorMatrix in="SourceAlpha" type="matrix" values="0 0 0 0 0 0 0 0 0 0 0 0 0 0 0 0 0 0 127 0" result="hardAlpha"/>
<feOffset dy="4"/>
<feGaussianBlur stdDeviation="2"/>
<feComposite in2="hardAlpha" operator="out"/>
<feColorMatrix type="matrix" values="0 0 0 0 0 0 0 0 0 0 0 0 0 0 0 0 0 0 0.25 0"/>
<feBlend mode="normal" in2="BackgroundImageFix" result="effect1_dropShadow_6_15"/>
<feBlend mode="normal" in="SourceGraphic" in2="effect1_dropShadow_6_15" result="shape"/>
</filter>
</defs>
</svg>
