<svg width="862" height="408" viewBox="0 0 862 408" fill="none" xmlns="http://www.w3.org/2000/svg">
<path d="M54.9348 0V407.606H861.74V0H54.9348ZM804.536 146.3L776.991 117.188L782.182 111.712L809.726 140.823L804.536 146.3Z" fill="#444444"/>
<path d="M782.168 111.707L776.984 117.186L804.528 146.297L809.712 140.818L782.168 111.707Z" fill="#444444"/>
<path id="relayPin1" class="hoverable" d="M175.091 140.307H0V165.707H175.091V140.307Z" fill="black"/>
<path id="relayPin2" class="hoverable" d="M175.091 198.358H0V223.758H175.091V198.358Z" fill="black"/>
<path id="relayPin3" class="hoverable" d="M175.091 256.418H0V281.819H175.091V256.418Z" fill="black"/>
<path d="M716.969 37.4937H199.697V370.113H716.969V37.4937Z" fill="#005BFF"/>
<path d="M780.481 87.2342L775.297 92.7132L802.841 121.824L808.025 116.345L780.481 87.2342Z" fill="#444444"/>
<path d="M792.057 76.825C777.206 76.825 765.163 89.5523 765.163 105.249C765.163 120.945 777.206 133.672 792.057 133.672C806.908 133.672 818.95 120.945 818.95 105.249C818.95 89.5432 806.917 76.825 792.057 76.825ZM801.872 122.366L774.593 93.8792L780.888 87.2258L808.433 116.337L801.872 122.366Z" fill="#C1A941"/>
<path id="relayConnector1" class="hoverable" opacity="0.56" d="M828.697 65.4918H754.312V144.109H828.697V65.4918Z" fill="#C1A941"/>
<path  d="M780.48 184.308L775.296 189.787L802.84 218.898L808.024 213.419L780.48 184.308Z" fill="#444444"/>
<path  d="M792.057 173.9C777.206 173.9 765.163 186.627 765.163 202.323C765.163 218.019 777.206 230.747 792.057 230.747C806.908 230.747 818.95 218.019 818.95 202.323C818.95 186.627 806.917 173.9 792.057 173.9ZM801.872 219.441L774.593 190.954L780.888 184.3L808.433 213.412L801.872 219.441Z" fill="#C1A941"/>
<path opacity="0.56" id="relayConnector2"  class="hoverable" d="M828.697 162.566H754.312V241.184H828.697V162.566Z" fill="#C1A941"/>
<path d="M780.485 281.389L775.301 286.868L802.844 315.978L808.029 310.499L780.485 281.389Z" fill="#444444"/>
<path d="M792.057 270.974C777.206 270.974 765.163 283.701 765.163 299.398C765.163 315.094 777.206 327.821 792.057 327.821C806.908 327.821 818.95 315.094 818.95 299.398C818.95 283.701 806.917 270.974 792.057 270.974ZM801.872 316.515L774.593 288.028L780.888 281.375L808.433 310.486L801.872 316.515Z" fill="#C1A941"/>
<path opacity="0.56" id="relayConnector3" class="hoverable" d="M828.697 259.641H754.312V338.258H828.697V259.641Z" fill="#C1A941"/>
<path d="M240.714 83.3968C244.748 82.6998 250.769 82.1748 257.441 82.1748C265.681 82.1748 271.453 83.4783 275.402 86.7913C278.699 89.5794 280.515 93.6709 280.515 99.075C280.515 106.561 275.487 111.703 270.708 113.531V113.794C274.579 115.45 276.721 119.37 278.125 124.765C279.855 131.382 281.585 139.049 282.656 141.312H269.809C268.901 139.655 267.582 134.867 265.938 127.643C264.456 120.329 262.066 118.32 256.953 118.238H253.159V141.321H240.714V83.3968ZM253.159 108.652H258.101C264.362 108.652 268.07 105.339 268.07 100.207C268.07 94.8115 264.61 92.1049 258.837 92.0234C255.788 92.0234 254.058 92.286 253.15 92.458V108.652H253.159Z" fill="white"/>
<path d="M300.809 124.24C301.22 129.725 306.334 132.341 312.183 132.341C316.466 132.341 319.926 131.735 323.309 130.603L324.954 139.574C320.834 141.312 315.806 142.19 310.368 142.19C296.69 142.19 288.861 133.826 288.861 120.501C288.861 109.702 295.208 97.7715 309.211 97.7715C322.23 97.7715 327.172 108.48 327.172 119.026C327.172 121.289 326.923 123.289 326.761 124.249H300.809V124.24ZM315.558 115.188C315.558 111.965 314.239 106.561 308.475 106.561C303.199 106.561 301.058 111.612 300.732 115.188H315.558Z" fill="white"/>
<path d="M332.675 79.4773H345.196V141.312H332.675V79.4773Z" fill="white"/>
<path d="M378.239 141.312L377.494 137.049H377.246C374.608 140.443 370.488 142.272 365.709 142.272C357.547 142.272 352.691 135.998 352.691 129.209C352.691 118.148 362.086 112.834 376.338 112.925V112.318C376.338 110.055 375.182 106.833 369.007 106.833C364.887 106.833 360.519 108.317 357.881 110.055L355.577 101.519C358.378 99.8626 363.902 97.7715 371.233 97.7715C384.663 97.7715 388.954 106.136 388.954 116.147V130.956C388.954 135.048 389.117 138.968 389.528 141.321H378.239V141.312ZM376.758 121.189C370.163 121.099 365.058 122.755 365.058 127.897C365.058 131.291 367.199 132.948 370 132.948C373.135 132.948 375.687 130.775 376.509 128.069C376.672 127.372 376.758 126.593 376.758 125.806V121.189Z" fill="white"/>
<path d="M411.771 86.8819C411.771 90.5389 409.133 93.499 405.013 93.499C401.056 93.499 398.418 90.5389 398.504 86.8819C398.418 83.0529 401.056 80.1743 405.099 80.1743C409.141 80.1743 411.694 83.0438 411.771 86.8819ZM398.838 141.312V98.722H411.36V141.312H398.838Z" fill="white"/>
<path d="M239.952 221.939V220.11L242.162 217.838C247.481 212.489 249.887 209.646 249.913 206.324C249.913 204.088 248.885 202.024 245.776 202.024C243.883 202.024 242.316 203.038 241.357 203.889L240.457 201.789C241.896 200.504 243.952 199.553 246.35 199.553C250.838 199.553 252.731 202.803 252.731 205.953C252.731 210.017 249.947 213.303 245.553 217.775L243.883 219.404V219.468H253.236V221.939H239.952Z" fill="white"/>
<path d="M257.064 218.517C257.861 219.06 259.719 219.902 261.681 219.902C265.304 219.902 266.426 217.467 266.391 215.639C266.357 212.561 263.728 211.239 261.004 211.239H259.437V209.004H261.004C263.051 209.004 265.646 207.89 265.646 205.274C265.646 203.518 264.584 201.952 261.998 201.952C260.328 201.952 258.726 202.73 257.835 203.409L257.099 201.246C258.186 200.404 260.302 199.553 262.546 199.553C266.648 199.553 268.507 202.124 268.507 204.803C268.507 207.075 267.222 209.004 264.661 209.981V210.045C267.222 210.588 269.303 212.615 269.303 215.702C269.303 219.223 266.708 222.31 261.706 222.31C259.368 222.31 257.313 221.532 256.294 220.817L257.064 218.517Z" fill="white"/>
<path d="M286.673 210.696C286.673 218.182 284.044 222.31 279.427 222.31C275.359 222.31 272.601 218.282 272.541 210.995C272.541 203.609 275.556 199.544 279.787 199.544C284.172 199.553 286.673 203.681 286.673 210.696ZM275.359 211.031C275.359 216.752 277.029 220.002 279.59 220.002C282.476 220.002 283.855 216.444 283.855 210.823C283.855 205.401 282.545 201.852 279.624 201.852C277.149 201.852 275.359 205.039 275.359 211.031Z" fill="white"/>
<path d="M300.642 221.939L293.593 199.11H296.608L299.974 210.352C300.899 213.43 301.704 216.209 302.278 218.888H302.338C302.946 216.245 303.845 213.367 304.805 210.389L308.453 199.11H311.434L303.708 221.939H300.642Z" fill="white"/>
<path d="M324.067 214.761L321.823 221.939H318.937L326.277 199.11H329.643L337.008 221.939H334.028L331.724 214.761H324.067ZM331.141 212.452L329.026 205.881C328.546 204.387 328.221 203.038 327.904 201.717H327.835C327.518 203.074 327.159 204.459 326.748 205.844L324.632 212.452H331.141Z" fill="white"/>
<path d="M354.789 221.197C353.761 221.74 351.714 222.283 349.085 222.283C342.995 222.283 338.413 218.219 338.413 210.732C338.413 203.59 342.995 198.748 349.693 198.748C352.382 198.748 354.087 199.354 354.823 199.761L354.147 202.169C353.093 201.626 351.586 201.219 349.787 201.219C344.725 201.219 341.359 204.64 341.359 210.633C341.359 216.218 344.4 219.812 349.659 219.812C351.354 219.812 353.084 219.441 354.206 218.861L354.789 221.197Z" fill="white"/>
<path d="M240.62 273.672C241.416 274.215 243.275 275.057 245.236 275.057C248.859 275.057 249.981 272.622 249.947 270.793C249.913 267.715 247.283 266.394 244.56 266.394H242.992V264.158H244.56C246.607 264.158 249.202 263.044 249.202 260.428C249.202 258.672 248.14 257.106 245.553 257.106C243.883 257.106 242.281 257.885 241.391 258.564L240.654 256.4C241.742 255.558 243.857 254.708 246.101 254.708C250.204 254.708 252.062 257.278 252.062 259.958C252.062 262.23 250.778 264.158 248.217 265.136V265.199C250.778 265.742 252.859 267.77 252.859 270.856C252.859 274.378 250.264 277.464 245.262 277.464C242.924 277.464 240.868 276.686 239.849 275.971L240.62 273.672Z" fill="white"/>
<path d="M270.228 265.851C270.228 273.337 267.599 277.464 262.983 277.464C258.914 277.464 256.156 273.436 256.096 266.149C256.096 258.763 259.111 254.698 263.342 254.698C267.728 254.708 270.228 258.835 270.228 265.851ZM258.923 266.186C258.923 271.906 260.584 275.156 263.154 275.156C266.04 275.156 267.419 271.599 267.419 265.977C267.419 260.555 266.109 257.007 263.188 257.007C260.713 257.007 258.923 260.193 258.923 266.186Z" fill="white"/>
<path d="M284.198 277.093L277.149 254.264H280.164L283.53 265.507C284.455 268.584 285.26 271.363 285.834 274.043H285.893C286.502 271.4 287.401 268.521 288.36 265.543L292.009 254.264H294.989L287.264 277.093H284.198Z" fill="white"/>
<path d="M317.72 254.572C319.416 254.3 321.437 254.101 323.647 254.101C327.656 254.101 330.508 255.079 332.392 256.943C334.31 258.808 335.432 261.451 335.432 265.136C335.432 268.865 334.345 271.906 332.323 274.007C330.302 276.143 326.97 277.292 322.774 277.292C320.787 277.292 319.125 277.193 317.712 277.021V254.572H317.72ZM320.504 274.758C321.206 274.894 322.234 274.93 323.322 274.93C329.283 274.93 332.52 271.409 332.52 265.244C332.555 259.858 329.668 256.436 323.776 256.436C322.337 256.436 321.241 256.572 320.504 256.744V274.758Z" fill="white"/>
<path d="M354.146 276.342C353.119 276.885 351.072 277.428 348.442 277.428C342.353 277.428 337.771 273.364 337.771 265.878C337.771 258.736 342.353 253.893 349.05 253.893C351.74 253.893 353.444 254.499 354.181 254.907L353.504 257.315C352.451 256.771 350.943 256.364 349.145 256.364C344.083 256.364 340.717 259.786 340.717 265.778C340.717 271.363 343.757 274.957 349.016 274.957C350.712 274.957 352.442 274.586 353.564 274.007L354.146 276.342Z" fill="white"/>
</svg>
